<svg xmlns="http://www.w3.org/2000/svg" viewBox="0 0 100 100">
  <!-- Top bun -->
  <ellipse cx="50" cy="25" rx="40" ry="20" fill="#d4a574"/>
  <ellipse cx="50" cy="22" rx="38" ry="16" fill="#e8c49a"/>
  <!-- Sesame seeds -->
  <ellipse cx="35" cy="18" rx="4" ry="2" fill="#fff8e7" transform="rotate(-15 35 18)"/>
  <ellipse cx="55" cy="15" rx="4" ry="2" fill="#fff8e7" transform="rotate(20 55 15)"/>
  <ellipse cx="65" cy="22" rx="4" ry="2" fill="#fff8e7" transform="rotate(-10 65 22)"/>
  <!-- Lettuce -->
  <path d="M15 45 Q30 38 50 42 Q70 38 85 45 Q80 50 50 48 Q20 50 15 45" fill="#88b04b"/>
  <!-- Patty 1 -->
  <rect x="12" y="48" width="76" height="12" rx="3" fill="#6B3E26"/>
  <rect x="12" y="48" width="76" height="4" rx="2" fill="#8B5A2B"/>
  <!-- Cheese -->
  <path d="M10 62 L15 58 L85 58 L90 62 L88 66 L12 66 Z" fill="#ffc107"/>
  <!-- Patty 2 -->
  <rect x="12" y="66" width="76" height="12" rx="3" fill="#5C4033"/>
  <rect x="12" y="66" width="76" height="4" rx="2" fill="#7B5544"/>
  <!-- Bottom bun -->
  <ellipse cx="50" cy="85" rx="40" ry="12" fill="#d4a574"/>
  <ellipse cx="50" cy="82" rx="40" ry="10" fill="#c49a6c"/>
</svg>
